<svg width="313" height="100" viewBox="0 0 313 100" fill="none" xmlns="http://www.w3.org/2000/svg">
<g clip-path="url(#clip0)">
<rect x="213" width="100" height="100" fill="#F0DB4F"/>
<path d="M217.414 95V71.375H224.074V76.505H224.299C224.419 75.845 224.629 75.215 224.929 74.615C225.229 73.985 225.619 73.43 226.099 72.95C226.609 72.47 227.209 72.095 227.899 71.825C228.589 71.525 229.399 71.375 230.329 71.375H231.499V77.585H229.834C227.884 77.585 226.429 77.84 225.469 78.35C224.539 78.86 224.074 79.805 224.074 81.185V95H217.414ZM252.452 95C251.252 95 250.247 94.625 249.437 93.875C248.657 93.125 248.162 92.12 247.952 90.86H247.682C247.322 92.39 246.527 93.56 245.297 94.37C244.067 95.15 242.552 95.54 240.752 95.54C238.382 95.54 236.567 94.91 235.307 93.65C234.047 92.39 233.417 90.725 233.417 88.655C233.417 86.165 234.317 84.32 236.117 83.12C237.947 81.89 240.422 81.275 243.542 81.275H247.277V79.79C247.277 78.65 246.977 77.75 246.377 77.09C245.777 76.4 244.772 76.055 243.362 76.055C242.042 76.055 240.992 76.34 240.212 76.91C239.432 77.48 238.787 78.125 238.277 78.845L234.317 75.335C235.277 73.925 236.477 72.83 237.917 72.05C239.387 71.24 241.367 70.835 243.857 70.835C247.217 70.835 249.737 71.57 251.417 73.04C253.097 74.51 253.937 76.655 253.937 79.475V89.825H256.142V95H252.452ZM243.227 90.905C244.337 90.905 245.282 90.665 246.062 90.185C246.872 89.705 247.277 88.925 247.277 87.845V85.055H244.037C241.427 85.055 240.122 85.94 240.122 87.71V88.385C240.122 89.255 240.392 89.9 240.932 90.32C241.472 90.71 242.237 90.905 243.227 90.905ZM275.102 91.04H274.877C274.697 91.67 274.412 92.27 274.022 92.84C273.632 93.38 273.152 93.86 272.582 94.28C272.042 94.67 271.412 94.97 270.692 95.18C270.002 95.42 269.282 95.54 268.532 95.54C265.532 95.54 263.267 94.49 261.737 92.39C260.207 90.26 259.442 87.185 259.442 83.165C259.442 79.145 260.207 76.085 261.737 73.985C263.267 71.885 265.532 70.835 268.532 70.835C270.062 70.835 271.412 71.255 272.582 72.095C273.782 72.935 274.547 74.015 274.877 75.335H275.102V61.7H281.762V95H275.102V91.04ZM270.737 90.14C271.997 90.14 273.032 89.84 273.842 89.24C274.682 88.61 275.102 87.755 275.102 86.675V79.7C275.102 78.62 274.682 77.78 273.842 77.18C273.032 76.55 271.997 76.235 270.737 76.235C269.477 76.235 268.427 76.685 267.587 77.585C266.777 78.455 266.372 79.64 266.372 81.14V85.235C266.372 86.735 266.777 87.935 267.587 88.835C268.427 89.705 269.477 90.14 270.737 90.14ZM301.94 91.04H301.715C301.505 91.64 301.22 92.21 300.86 92.75C300.53 93.29 300.095 93.77 299.555 94.19C299.015 94.61 298.37 94.94 297.62 95.18C296.9 95.42 296.06 95.54 295.1 95.54C292.67 95.54 290.825 94.745 289.565 93.155C288.335 91.535 287.72 89.225 287.72 86.225V71.375H294.38V85.64C294.38 87.08 294.635 88.19 295.145 88.97C295.655 89.75 296.525 90.14 297.755 90.14C298.265 90.14 298.775 90.065 299.285 89.915C299.795 89.765 300.245 89.555 300.635 89.285C301.025 88.985 301.34 88.625 301.58 88.205C301.82 87.785 301.94 87.29 301.94 86.72V71.375H308.6V95H301.94V91.04Z" fill="#070707"/>
<path d="M12.5954 95.54C10.9754 95.54 9.52037 95.255 8.23037 94.685C6.94037 94.115 5.84537 93.305 4.94537 92.255C4.07537 91.205 3.40037 89.93 2.92037 88.43C2.47037 86.93 2.24537 85.25 2.24537 83.39C2.24537 81.53 2.47037 79.85 2.92037 78.35C3.40037 76.85 4.07537 75.575 4.94537 74.525C5.84537 73.475 6.94037 72.665 8.23037 72.095C9.52037 71.525 10.9754 71.24 12.5954 71.24C14.9054 71.24 16.7504 71.75 18.1304 72.77C19.5404 73.76 20.5904 75.065 21.2804 76.685L18.2654 78.215C17.8454 77.015 17.1554 76.085 16.1954 75.425C15.2354 74.765 14.0354 74.435 12.5954 74.435C11.5154 74.435 10.5704 74.615 9.76037 74.975C8.95037 75.305 8.27537 75.785 7.73537 76.415C7.19537 77.015 6.79037 77.75 6.52037 78.62C6.25037 79.46 6.11537 80.39 6.11537 81.41V85.37C6.11537 87.41 6.65537 89.09 7.73537 90.41C8.84537 91.7 10.4654 92.345 12.5954 92.345C15.5054 92.345 17.6054 90.995 18.8954 88.295L21.5054 90.05C20.7554 91.73 19.6304 93.065 18.1304 94.055C16.6604 95.045 14.8154 95.54 12.5954 95.54ZM35.0985 95.54C33.5385 95.54 32.1135 95.255 30.8235 94.685C29.5335 94.115 28.4235 93.305 27.4935 92.255C26.5935 91.175 25.8885 89.9 25.3785 88.43C24.8685 86.93 24.6135 85.25 24.6135 83.39C24.6135 81.56 24.8685 79.895 25.3785 78.395C25.8885 76.895 26.5935 75.62 27.4935 74.57C28.4235 73.49 29.5335 72.665 30.8235 72.095C32.1135 71.525 33.5385 71.24 35.0985 71.24C36.6585 71.24 38.0685 71.525 39.3285 72.095C40.6185 72.665 41.7285 73.49 42.6585 74.57C43.5885 75.62 44.3085 76.895 44.8185 78.395C45.3285 79.895 45.5835 81.56 45.5835 83.39C45.5835 85.25 45.3285 86.93 44.8185 88.43C44.3085 89.9 43.5885 91.175 42.6585 92.255C41.7285 93.305 40.6185 94.115 39.3285 94.685C38.0685 95.255 36.6585 95.54 35.0985 95.54ZM35.0985 92.345C37.0485 92.345 38.6385 91.745 39.8685 90.545C41.0985 89.345 41.7135 87.515 41.7135 85.055V81.725C41.7135 79.265 41.0985 77.435 39.8685 76.235C38.6385 75.035 37.0485 74.435 35.0985 74.435C33.1485 74.435 31.5585 75.035 30.3285 76.235C29.0985 77.435 28.4835 79.265 28.4835 81.725V85.055C28.4835 87.515 29.0985 89.345 30.3285 90.545C31.5585 91.745 33.1485 92.345 35.0985 92.345ZM51.5042 95V71.78H55.1042V75.56H55.2842C55.8542 74.24 56.6492 73.19 57.6692 72.41C58.7192 71.63 60.1142 71.24 61.8542 71.24C64.2542 71.24 66.1442 72.02 67.5242 73.58C68.9342 75.11 69.6392 77.285 69.6392 80.105V95H66.0392V80.735C66.0392 76.565 64.2842 74.48 60.7742 74.48C60.0542 74.48 59.3492 74.57 58.6592 74.75C57.9992 74.93 57.3992 75.2 56.8592 75.56C56.3192 75.92 55.8842 76.385 55.5542 76.955C55.2542 77.495 55.1042 78.14 55.1042 78.89V95H51.5042ZM84.0554 95.54C81.8954 95.54 80.0804 95.135 78.6104 94.325C77.1704 93.485 75.9254 92.375 74.8754 90.995L77.4404 88.925C78.3404 90.065 79.3454 90.95 80.4554 91.58C81.5654 92.18 82.8554 92.48 84.3254 92.48C85.8554 92.48 87.0404 92.15 87.8804 91.49C88.7504 90.83 89.1854 89.9 89.1854 88.7C89.1854 87.8 88.8854 87.035 88.2854 86.405C87.7154 85.745 86.6654 85.295 85.1354 85.055L83.2904 84.785C82.2104 84.635 81.2204 84.41 80.3204 84.11C79.4204 83.78 78.6254 83.36 77.9354 82.85C77.2754 82.31 76.7504 81.65 76.3604 80.87C76.0004 80.09 75.8204 79.16 75.8204 78.08C75.8204 76.94 76.0304 75.95 76.4504 75.11C76.8704 74.24 77.4404 73.52 78.1604 72.95C78.9104 72.38 79.7954 71.96 80.8154 71.69C81.8354 71.39 82.9304 71.24 84.1004 71.24C85.9904 71.24 87.5654 71.57 88.8254 72.23C90.1154 72.89 91.2404 73.805 92.2004 74.975L89.8154 77.135C89.3054 76.415 88.5554 75.77 87.5654 75.2C86.5754 74.6 85.3304 74.3 83.8304 74.3C82.3304 74.3 81.1904 74.63 80.4104 75.29C79.6604 75.92 79.2854 76.79 79.2854 77.9C79.2854 79.04 79.6604 79.865 80.4104 80.375C81.1904 80.885 82.3004 81.26 83.7404 81.5L85.5404 81.77C88.1204 82.16 89.9504 82.91 91.0304 84.02C92.1104 85.1 92.6504 86.525 92.6504 88.295C92.6504 90.545 91.8854 92.315 90.3554 93.605C88.8254 94.895 86.7254 95.54 84.0554 95.54ZM103.831 95C102.571 95 101.611 94.655 100.951 93.965C100.321 93.245 100.006 92.315 100.006 91.175V74.93H96.1815V71.78H98.3415C99.1215 71.78 99.6465 71.63 99.9165 71.33C100.216 71 100.366 70.445 100.366 69.665V65.345H103.606V71.78H108.691V74.93H103.606V91.85H108.331V95H103.831ZM131.353 95C130.003 95 129.028 94.64 128.428 93.92C127.858 93.2 127.498 92.3 127.348 91.22H127.123C126.613 92.66 125.773 93.74 124.603 94.46C123.433 95.18 122.038 95.54 120.418 95.54C117.958 95.54 116.038 94.91 114.658 93.65C113.308 92.39 112.633 90.68 112.633 88.52C112.633 86.33 113.428 84.65 115.018 83.48C116.638 82.31 119.143 81.725 122.533 81.725H127.123V79.43C127.123 77.78 126.673 76.52 125.773 75.65C124.873 74.78 123.493 74.345 121.633 74.345C120.223 74.345 119.038 74.66 118.078 75.29C117.148 75.92 116.368 76.76 115.738 77.81L113.578 75.785C114.208 74.525 115.213 73.46 116.593 72.59C117.973 71.69 119.713 71.24 121.813 71.24C124.633 71.24 126.823 71.93 128.383 73.31C129.943 74.69 130.723 76.61 130.723 79.07V91.85H133.378V95H131.353ZM121.003 92.48C121.903 92.48 122.728 92.375 123.478 92.165C124.228 91.955 124.873 91.655 125.413 91.265C125.953 90.875 126.373 90.425 126.673 89.915C126.973 89.405 127.123 88.85 127.123 88.25V84.425H122.353C120.283 84.425 118.768 84.725 117.808 85.325C116.878 85.925 116.413 86.795 116.413 87.935V88.88C116.413 90.02 116.818 90.905 117.628 91.535C118.468 92.165 119.593 92.48 121.003 92.48ZM138.516 95V71.78H142.116V75.56H142.296C142.866 74.24 143.661 73.19 144.681 72.41C145.731 71.63 147.126 71.24 148.866 71.24C151.266 71.24 153.156 72.02 154.536 73.58C155.946 75.11 156.651 77.285 156.651 80.105V95H153.051V80.735C153.051 76.565 151.296 74.48 147.786 74.48C147.066 74.48 146.361 74.57 145.671 74.75C145.011 74.93 144.411 75.2 143.871 75.56C143.331 75.92 142.896 76.385 142.566 76.955C142.266 77.495 142.116 78.14 142.116 78.89V95H138.516ZM169.222 95C167.962 95 167.002 94.655 166.342 93.965C165.712 93.245 165.397 92.315 165.397 91.175V74.93H161.572V71.78H163.732C164.512 71.78 165.037 71.63 165.307 71.33C165.607 71 165.757 70.445 165.757 69.665V65.345H168.997V71.78H174.082V74.93H168.997V91.85H173.722V95H169.222ZM181.668 66.335C180.888 66.335 180.318 66.155 179.958 65.795C179.628 65.405 179.463 64.91 179.463 64.31V63.725C179.463 63.125 179.628 62.645 179.958 62.285C180.318 61.895 180.888 61.7 181.668 61.7C182.448 61.7 183.003 61.895 183.333 62.285C183.693 62.645 183.873 63.125 183.873 63.725V64.31C183.873 64.91 183.693 65.405 183.333 65.795C183.003 66.155 182.448 66.335 181.668 66.335ZM179.868 71.78H183.468V95H179.868V71.78ZM191.118 95V71.78H194.718V75.56H194.898C195.468 74.24 196.263 73.19 197.283 72.41C198.333 71.63 199.728 71.24 201.468 71.24C203.868 71.24 205.758 72.02 207.138 73.58C208.548 75.11 209.253 77.285 209.253 80.105V95H205.653V80.735C205.653 76.565 203.898 74.48 200.388 74.48C199.668 74.48 198.963 74.57 198.273 74.75C197.613 74.93 197.013 75.2 196.473 75.56C195.933 75.92 195.498 76.385 195.168 76.955C194.868 77.495 194.718 78.14 194.718 78.89V95H191.118Z" fill="#070707"/>
</g>
<defs>
<clipPath id="clip0">
<rect width="313" height="100" fill="white"/>
</clipPath>
</defs>
</svg>
